<mxfile host="app.diagrams.net" modified="2021-10-16T07:59:22.758Z" agent="5.0 (Macintosh; Intel Mac OS X 10_13_6) AppleWebKit/537.36 (KHTML, like Gecko) Chrome/94.0.4606.81 Safari/537.36" etag="3DMyjgQJOvT6huawyvu6" version="15.5.4" type="github">
  <diagram id="Asho-Rx_5MazEgMg47kG" name="第 1 页">
    <mxGraphModel dx="1186" dy="673" grid="1" gridSize="10" guides="1" tooltips="1" connect="1" arrows="1" fold="1" page="1" pageScale="1" pageWidth="827" pageHeight="1169" math="0" shadow="0">
      <root>
        <mxCell id="0" />
        <mxCell id="1" parent="0" />
        <mxCell id="91oSptHnsPlG97CoWpPX-1" value="FE" style="rounded=1;whiteSpace=wrap;html=1;fillColor=#e1d5e7;strokeColor=#9673a6;" vertex="1" parent="1">
          <mxGeometry x="570" y="300" width="120" height="60" as="geometry" />
        </mxCell>
        <mxCell id="91oSptHnsPlG97CoWpPX-2" value="WEB应用" style="rounded=1;whiteSpace=wrap;html=1;fillColor=#f8cecc;strokeColor=#b85450;" vertex="1" parent="1">
          <mxGeometry x="320" y="290" width="120" height="60" as="geometry" />
        </mxCell>
        <mxCell id="91oSptHnsPlG97CoWpPX-13" style="edgeStyle=none;rounded=0;orthogonalLoop=1;jettySize=auto;html=1;exitX=0.5;exitY=1;exitDx=0;exitDy=0;entryX=0.5;entryY=0;entryDx=0;entryDy=0;" edge="1" parent="1" source="91oSptHnsPlG97CoWpPX-3" target="91oSptHnsPlG97CoWpPX-7">
          <mxGeometry relative="1" as="geometry" />
        </mxCell>
        <mxCell id="91oSptHnsPlG97CoWpPX-14" style="edgeStyle=none;rounded=0;orthogonalLoop=1;jettySize=auto;html=1;exitX=0.5;exitY=1;exitDx=0;exitDy=0;entryX=0.5;entryY=0;entryDx=0;entryDy=0;" edge="1" parent="1" source="91oSptHnsPlG97CoWpPX-3" target="91oSptHnsPlG97CoWpPX-1">
          <mxGeometry relative="1" as="geometry" />
        </mxCell>
        <mxCell id="91oSptHnsPlG97CoWpPX-3" value="SLB（NGINX）" style="rounded=1;whiteSpace=wrap;html=1;fillColor=#dae8fc;strokeColor=#6c8ebf;" vertex="1" parent="1">
          <mxGeometry x="290" y="150" width="450" height="60" as="geometry" />
        </mxCell>
        <mxCell id="91oSptHnsPlG97CoWpPX-4" value="DB" style="shape=cylinder3;whiteSpace=wrap;html=1;boundedLbl=1;backgroundOutline=1;size=15;" vertex="1" parent="1">
          <mxGeometry x="300" y="420" width="60" height="80" as="geometry" />
        </mxCell>
        <mxCell id="91oSptHnsPlG97CoWpPX-6" value="Redis" style="shape=cylinder3;whiteSpace=wrap;html=1;boundedLbl=1;backgroundOutline=1;size=15;" vertex="1" parent="1">
          <mxGeometry x="430" y="420" width="60" height="80" as="geometry" />
        </mxCell>
        <mxCell id="91oSptHnsPlG97CoWpPX-15" style="edgeStyle=none;rounded=0;orthogonalLoop=1;jettySize=auto;html=1;exitX=0.5;exitY=1;exitDx=0;exitDy=0;entryX=0.5;entryY=0;entryDx=0;entryDy=0;entryPerimeter=0;" edge="1" parent="1" source="91oSptHnsPlG97CoWpPX-7" target="91oSptHnsPlG97CoWpPX-4">
          <mxGeometry relative="1" as="geometry" />
        </mxCell>
        <mxCell id="91oSptHnsPlG97CoWpPX-16" style="edgeStyle=none;rounded=0;orthogonalLoop=1;jettySize=auto;html=1;exitX=0.5;exitY=1;exitDx=0;exitDy=0;entryX=0.5;entryY=0;entryDx=0;entryDy=0;entryPerimeter=0;" edge="1" parent="1" source="91oSptHnsPlG97CoWpPX-7" target="91oSptHnsPlG97CoWpPX-6">
          <mxGeometry relative="1" as="geometry" />
        </mxCell>
        <mxCell id="91oSptHnsPlG97CoWpPX-7" value="WEB应用" style="rounded=1;whiteSpace=wrap;html=1;fillColor=#f8cecc;strokeColor=#b85450;" vertex="1" parent="1">
          <mxGeometry x="330" y="300" width="120" height="60" as="geometry" />
        </mxCell>
        <mxCell id="91oSptHnsPlG97CoWpPX-11" value="" style="rounded=0;orthogonalLoop=1;jettySize=auto;html=1;" edge="1" parent="1" source="91oSptHnsPlG97CoWpPX-9" target="91oSptHnsPlG97CoWpPX-3">
          <mxGeometry relative="1" as="geometry" />
        </mxCell>
        <mxCell id="91oSptHnsPlG97CoWpPX-9" value="" style="sketch=0;pointerEvents=1;shadow=0;dashed=0;html=1;strokeColor=none;fillColor=#434445;aspect=fixed;labelPosition=center;verticalLabelPosition=bottom;verticalAlign=top;align=center;outlineConnect=0;shape=mxgraph.vvd.web_browser;" vertex="1" parent="1">
          <mxGeometry x="370" y="34.5" width="50" height="35.5" as="geometry" />
        </mxCell>
        <mxCell id="91oSptHnsPlG97CoWpPX-12" value="" style="edgeStyle=none;rounded=0;orthogonalLoop=1;jettySize=auto;html=1;" edge="1" parent="1" source="91oSptHnsPlG97CoWpPX-10" target="91oSptHnsPlG97CoWpPX-3">
          <mxGeometry relative="1" as="geometry" />
        </mxCell>
        <mxCell id="91oSptHnsPlG97CoWpPX-10" value="" style="sketch=0;pointerEvents=1;shadow=0;dashed=0;html=1;strokeColor=none;fillColor=#434445;aspect=fixed;labelPosition=center;verticalLabelPosition=bottom;verticalAlign=top;align=center;outlineConnect=0;shape=mxgraph.vvd.web_browser;" vertex="1" parent="1">
          <mxGeometry x="605" y="34.5" width="50" height="35.5" as="geometry" />
        </mxCell>
        <mxCell id="91oSptHnsPlG97CoWpPX-17" value="浏览器" style="text;html=1;strokeColor=none;fillColor=none;align=center;verticalAlign=middle;whiteSpace=wrap;rounded=0;" vertex="1" parent="1">
          <mxGeometry x="485" y="40" width="60" height="30" as="geometry" />
        </mxCell>
      </root>
    </mxGraphModel>
  </diagram>
</mxfile>
